# xmcd
#
# Track frame offsets:
#	151
#	13988
#	23832
#	36197
#	47114
#	58952
#	73219
#	85350
#	90407
#	102676
#	115698
#	127631
#	137637
#	150232
#	162799
#	175562
#	189548
#	203238
#	216445
#	231564
#	245570
#
# Disc length: 3443
#
# Revision: 2
# Processed by: cddbd v1.5.1PL0 Copyright (c) Steve Scherf et al.
# Submitted via: CDex 1.50
# Normalized: r1:DSETVAR1,TDELIM( - )
#
DISCID=270d7115
DTITLE=Various Artist - Collections of Jazz - CD 06
DYEAR=1900
DGENRE=Jazz
TTITLE0=Louis Armstrong - Alligator Crawl
TTITLE1=Scott Joplin - The Cascades
TTITLE2=Jelly Roll Morton - Perfect Rag
TTITLE3=James P. Johnson - Harlem Strut
TTITLE4=George Gershwin - When Do We Dance
TTITLE5=Pete Johnson - Lone Star Blues
TTITLE6=Southern Folk Heritage In The Field - Oree
TTITLE7=Southern Folk Heritage In The Field - The Wild Ox Moan
TTITLE8=Doc Cook's Dreamland Orchestra - Memphis maybe Man
TTITLE9=The Wolverines - Royal - Garden Blues
TTITLE10=Freddie Keppard's Jazz Cardinals - Salty Dog
TTITLE11=Rhythmic Chants Of Southern Negro Street Vendors - Street Cries Of Charleston
TTITLE12=Rev.J.M.Gates and Congregation - I'm Going To Heaven If It Takes My Life
TTITLE13=Orginal Dixieland Jazzband - Clarinet Marmalade
TTITLE14=King Oliver's Jazzband - Sweet Lovin' Man
TTITLE15=New Orlean Owls - That's A Plenty
TTITLE16=Monk Hazel and His Bienville Roof Orchestra - High Society
TTITLE17=Johnny Dodd's Orchestra - Too Tight
TTITLE18=Jones and Collins Astoria - Damp Weather
TTITLE19=Jimmy Yancey - The Fives
TTITLE20=Ida Cox - I've Got The Blues For Ramoart Street
EXTD=
EXTT0=
EXTT1=
EXTT2=
EXTT3=
EXTT4=
EXTT5=
EXTT6=
EXTT7=
EXTT8=
EXTT9=
EXTT10=
EXTT11=
EXTT12=
EXTT13=
EXTT14=
EXTT15=
EXTT16=
EXTT17=
EXTT18=
EXTT19=
EXTT20=
PLAYORDER=
